<?xml version="1.0" encoding="UTF-8"?>
<svg id="Layer_1" data-name="Layer 1" xmlns="http://www.w3.org/2000/svg" viewBox="0 0 160 160">
  <defs>
    <style>
      .cls-1 {
        fill: #0f1826;
      }
    </style>
  </defs>
  <path class="cls-1" d="M142.47,125.53l-16.97,16.97c-1.56,1.56-4.09,1.56-5.66,0l-39.85-39.85-39.85,39.85c-1.56,1.56-4.09,1.56-5.66,0l-16.97-16.97c-1.56-1.56-1.56-4.09,0-5.66l39.85-39.85L17.67,40.33c-1.56-1.56-1.56-4.09,0-5.66l16.97-16.97c1.56-1.56,4.09-1.56,5.66,0l39.7,39.7L119.7,17.7c1.56-1.56,4.09-1.56,5.66,0l16.97,16.97c1.56,1.56,1.56,4.09,0,5.66l-39.7,39.7,39.85,39.85c1.56,1.56,1.56,4.09,0,5.66Z"/>
</svg>