<?xml version="1.0" encoding="UTF-8"?>
<svg id="Layer_1" data-name="Layer 1" xmlns="http://www.w3.org/2000/svg" viewBox="0 0 144 160">
  <path class="cls-1" d="M124.63,64H20.63c-2.21,0-4,1.79-4,4v88c0,2.21,1.79,4,4,4H124.63c2.21,0,4-1.79,4-4V68c0-2.21-1.79-4-4-4ZM48.63,140c0,2.21-1.79,4-4,4h-8c-2.21,0-4-1.79-4-4v-56c0-2.21,1.79-4,4-4h8c2.21,0,4,1.79,4,4v56Zm32,0c0,2.21-1.79,4-4,4h-8c-2.21,0-4-1.79-4-4v-56c0-2.21,1.79-4,4-4h8c2.21,0,4,1.79,4,4v56Zm32,0c0,2.21-1.79,4-4,4h-8c-2.21,0-4-1.79-4-4v-56c0-2.21,1.79-4,4-4h8c2.21,0,4,1.79,4,4v56Z"/>
  <path class="cls-1" d="M128.63,44c0,2.21-2.09,4-4.66,4H21.29c-2.57,0-4.66-1.79-4.66-4,0,0,0-23.12,42-27.34V4c0-2.21,1.57-4,3.5-4h21c1.93,0,3.5,1.79,3.5,4v12.66c42,4.23,42,27.34,42,27.34Z"/>
</svg>