<?xml version="1.0" encoding="UTF-8"?>
<svg id="Layer_1" data-name="Layer 1" xmlns="http://www.w3.org/2000/svg" viewBox="0 0 160 160">
  <defs>
    <style>
      .cls-1 {
        fill: #bad6ec;
      }
    </style>
  </defs>
  <path class="cls-1" d="M107.93,125c2.62-6.49,4.07-13.57,4.07-21h-16c0-5.54-1.13-10.82-3.17-15.62l14.74-6.25c-2.83-6.67-6.92-12.68-11.97-17.73l-11.32,11.32c-3.76-3.76-8.27-6.78-13.29-8.81l6.01-14.84c-6.49-2.62-13.57-4.07-21-4.07v16c-5.54,0-10.82,1.13-15.62,3.17l-6.25-14.74c-6.67,2.83-12.68,6.92-17.73,11.97l11.32,11.32c-3.76,3.76-6.78,8.27-8.81,13.29l-14.84-6.01c-2.62,6.49-4.07,13.57-4.07,21H16c0,5.54,1.13,10.82,3.17,15.62l-14.74,6.25c2.83,6.67,6.92,12.68,11.97,17.73l11.32-11.32c3.76,3.76,8.27,6.78,13.29,8.81l-6.01,14.84c6.49,2.62,13.57,4.07,21,4.07v-16c5.54,0,10.82-1.13,15.62-3.17l6.25,14.74c6.67-2.83,12.68-6.92,17.73-11.97l-11.32-11.32c3.76-3.76,6.78-8.27,8.81-13.29l14.84,6.01Zm-34.96-4.03c-2.17,2.16-4.74,3.92-7.6,5.13-2.88,1.22-6.05,1.9-9.37,1.9s-6.21-.62-8.99-1.75c-3.01-1.21-5.72-3.02-7.98-5.28-2.16-2.17-3.92-4.74-5.13-7.6-1.22-2.88-1.9-6.05-1.9-9.37s.62-6.21,1.75-8.99c1.21-3.01,3.02-5.72,5.28-7.98,2.17-2.16,4.74-3.92,7.6-5.13,2.88-1.22,6.05-1.9,9.37-1.9s6.21,.62,8.99,1.75c3.01,1.21,5.72,3.02,7.98,5.28,2.16,2.17,3.92,4.74,5.13,7.6,1.22,2.88,1.9,6.05,1.9,9.37s-.62,6.21-1.75,8.99c-1.21,3.01-3.02,5.72-5.28,7.98Z"/>
  <path class="cls-1" d="M143.29,63.55c-1.03,5.32-3.12,10.33-6.08,14.74l13.29,8.92c-3.98,5.93-9.09,11.11-15.09,15.17l-8.94-13.2c-1.19-5.68-3.05-11.12-5.49-16.22,1.1-1.1,2.08-2.3,2.95-3.58,1.78-2.66,3.03-5.67,3.64-8.85,.57-2.95,.59-6.04-.02-9.16-.64-3.26-1.92-6.24-3.67-8.83-1.74-2.57-3.97-4.75-6.5-6.47-2.66-1.78-5.67-3.03-8.85-3.64-2.95-.57-6.04-.59-9.16,.02-3.26,.64-6.24,1.92-8.83,3.67-1.27,.86-2.44,1.83-3.5,2.9-5.23-2.51-10.82-4.4-16.66-5.58l-12.88-8.65c3.98-5.93,9.09-11.11,15.09-15.17l8.98,13.26c4.31-2.93,9.27-5.06,14.71-6.13l-3.09-15.7c7.29-1.43,14.52-1.37,21.39-.06l-3.03,15.72c5.32,1.03,10.33,3.12,14.74,6.08l8.92-13.29c5.93,3.98,11.11,9.09,15.17,15.09l-13.26,8.98c2.93,4.31,5.06,9.27,6.13,14.71l15.7-3.09c1.43,7.29,1.37,14.52,.06,21.39l-15.72-3.03Z"/>
</svg>